<mxfile host="app.diagrams.net" modified="2020-12-04T14:32:27.620Z" agent="5.0 (Windows NT 10.0; Win64; x64) AppleWebKit/537.36 (KHTML, like Gecko) Chrome/86.0.4240.198 Safari/537.36" etag="CyVgbHKniLDJvoRMx4R5" version="13.10.9" type="github" pages="2">
  <diagram id="JbWGIw1ZpXycpuZKb6Zg" name="Capabilities">
    <mxGraphModel dx="1038" dy="1692" grid="1" gridSize="10" guides="1" tooltips="1" connect="1" arrows="1" fold="1" page="1" pageScale="1" pageWidth="827" pageHeight="1169" math="0" shadow="0">
      <root>
        <mxCell id="0" />
        <mxCell id="1" parent="0" />
        <mxCell id="DUVSqwXpXaL7lvHpWTTA-13" value="" style="rounded=1;whiteSpace=wrap;html=1;fillColor=#d5e8d4;strokeColor=#82b366;" vertex="1" parent="1">
          <mxGeometry x="280" y="-20" width="720" height="370" as="geometry" />
        </mxCell>
        <mxCell id="DUVSqwXpXaL7lvHpWTTA-1" value="Error Handling" style="rounded=0;whiteSpace=wrap;html=1;fontStyle=1;fillColor=#f5f5f5;strokeColor=#666666;fontColor=#333333;" vertex="1" parent="1">
          <mxGeometry x="320" y="250" width="200" height="50" as="geometry" />
        </mxCell>
        <mxCell id="DUVSqwXpXaL7lvHpWTTA-2" value="Input/Output Logging" style="rounded=0;whiteSpace=wrap;html=1;fontStyle=1;fillColor=#f5f5f5;strokeColor=#666666;fontColor=#333333;" vertex="1" parent="1">
          <mxGeometry x="760" y="40" width="200" height="50" as="geometry" />
        </mxCell>
        <mxCell id="DUVSqwXpXaL7lvHpWTTA-3" value="Configuration" style="rounded=0;whiteSpace=wrap;html=1;fontStyle=1;fillColor=#f5f5f5;strokeColor=#666666;fontColor=#333333;" vertex="1" parent="1">
          <mxGeometry x="760" y="180" width="200" height="50" as="geometry" />
        </mxCell>
        <mxCell id="DUVSqwXpXaL7lvHpWTTA-4" value="Security Context" style="rounded=0;whiteSpace=wrap;html=1;fontStyle=1;fillColor=#f5f5f5;strokeColor=#666666;fontColor=#333333;" vertex="1" parent="1">
          <mxGeometry x="540" y="250" width="200" height="50" as="geometry" />
        </mxCell>
        <mxCell id="DUVSqwXpXaL7lvHpWTTA-5" value="User Context" style="rounded=0;whiteSpace=wrap;html=1;fontStyle=1;fillColor=#f5f5f5;strokeColor=#666666;fontColor=#333333;" vertex="1" parent="1">
          <mxGeometry x="760" y="250" width="200" height="50" as="geometry" />
        </mxCell>
        <mxCell id="DUVSqwXpXaL7lvHpWTTA-6" value="REST Exposure" style="rounded=0;whiteSpace=wrap;html=1;fontStyle=1;fillColor=#f5f5f5;strokeColor=#666666;fontColor=#333333;" vertex="1" parent="1">
          <mxGeometry x="320" y="40" width="200" height="50" as="geometry" />
        </mxCell>
        <mxCell id="DUVSqwXpXaL7lvHpWTTA-7" value="Model" style="rounded=0;whiteSpace=wrap;html=1;fontStyle=1;fillColor=#f5f5f5;strokeColor=#666666;fontColor=#333333;" vertex="1" parent="1">
          <mxGeometry x="540" y="40" width="200" height="50" as="geometry" />
        </mxCell>
        <mxCell id="DUVSqwXpXaL7lvHpWTTA-8" value="Mapping/Anti Corruption" style="rounded=0;whiteSpace=wrap;html=1;fontStyle=1;fillColor=#f5f5f5;strokeColor=#666666;fontColor=#333333;" vertex="1" parent="1">
          <mxGeometry x="320" y="110" width="200" height="50" as="geometry" />
        </mxCell>
        <mxCell id="DUVSqwXpXaL7lvHpWTTA-9" value="Generated/Imported Contract" style="rounded=0;whiteSpace=wrap;html=1;fontStyle=1;fillColor=#f5f5f5;strokeColor=#666666;fontColor=#333333;" vertex="1" parent="1">
          <mxGeometry x="320" y="180" width="200" height="50" as="geometry" />
        </mxCell>
        <mxCell id="DUVSqwXpXaL7lvHpWTTA-10" value="Integration Logic" style="rounded=0;whiteSpace=wrap;html=1;fontStyle=1;fillColor=#f5f5f5;strokeColor=#666666;fontColor=#333333;" vertex="1" parent="1">
          <mxGeometry x="540" y="110" width="200" height="50" as="geometry" />
        </mxCell>
        <mxCell id="DUVSqwXpXaL7lvHpWTTA-11" value="Live/Stub Switching" style="rounded=0;whiteSpace=wrap;html=1;fontStyle=1;fillColor=#f5f5f5;strokeColor=#666666;fontColor=#333333;" vertex="1" parent="1">
          <mxGeometry x="760" y="110" width="200" height="50" as="geometry" />
        </mxCell>
        <mxCell id="DUVSqwXpXaL7lvHpWTTA-12" value="Stub" style="rounded=0;whiteSpace=wrap;html=1;fontStyle=1;fillColor=#f5f5f5;strokeColor=#666666;fontColor=#333333;" vertex="1" parent="1">
          <mxGeometry x="540" y="180" width="200" height="50" as="geometry" />
        </mxCell>
        <mxCell id="DUVSqwXpXaL7lvHpWTTA-14" value="&lt;b&gt;&lt;font style=&quot;font-size: 23px&quot;&gt;Adapter Capabilities&lt;/font&gt;&lt;/b&gt;" style="text;html=1;strokeColor=none;fillColor=none;align=center;verticalAlign=middle;whiteSpace=wrap;rounded=0;" vertex="1" parent="1">
          <mxGeometry x="280" width="720" height="20" as="geometry" />
        </mxCell>
      </root>
    </mxGraphModel>
  </diagram>
  <diagram id="ZYeuAaFYEbaQwAMkNQR_" name="Architecture">
    <mxGraphModel dx="1038" dy="523" grid="1" gridSize="10" guides="1" tooltips="1" connect="1" arrows="1" fold="1" page="1" pageScale="1" pageWidth="827" pageHeight="1169" math="0" shadow="0">
      <root>
        <mxCell id="y2lmGv4b4nCFqIiEvOp2-0" />
        <mxCell id="y2lmGv4b4nCFqIiEvOp2-1" parent="y2lmGv4b4nCFqIiEvOp2-0" />
        <mxCell id="y2lmGv4b4nCFqIiEvOp2-2" value="Business application" style="rounded=1;whiteSpace=wrap;html=1;fontStyle=1;fontSize=17;fillColor=#dae8fc;strokeColor=#6c8ebf;" vertex="1" parent="y2lmGv4b4nCFqIiEvOp2-1">
          <mxGeometry x="440" y="20" width="260" height="60" as="geometry" />
        </mxCell>
        <mxCell id="y2lmGv4b4nCFqIiEvOp2-3" value="Adapter" style="rounded=1;whiteSpace=wrap;html=1;fontStyle=1;fontSize=17;fillColor=#d5e8d4;strokeColor=#82b366;" vertex="1" parent="y2lmGv4b4nCFqIiEvOp2-1">
          <mxGeometry x="280" y="160" width="260" height="60" as="geometry" />
        </mxCell>
        <mxCell id="y2lmGv4b4nCFqIiEvOp2-4" value="External Resource" style="rounded=1;whiteSpace=wrap;html=1;fontStyle=1;fontSize=17;fillColor=#f5f5f5;strokeColor=#666666;fontColor=#333333;" vertex="1" parent="y2lmGv4b4nCFqIiEvOp2-1">
          <mxGeometry x="280" y="340" width="260" height="60" as="geometry" />
        </mxCell>
        <mxCell id="QgFrLn8NZT4hh2QuYDV3-1" value="" style="endArrow=none;html=1;fontSize=17;strokeWidth=3;dashed=1;" edge="1" parent="y2lmGv4b4nCFqIiEvOp2-1">
          <mxGeometry width="50" height="50" relative="1" as="geometry">
            <mxPoint x="80" y="260" as="sourcePoint" />
            <mxPoint x="840" y="260" as="targetPoint" />
          </mxGeometry>
        </mxCell>
        <mxCell id="QgFrLn8NZT4hh2QuYDV3-2" value="&lt;b&gt;&lt;i&gt;Within Bounded Context&lt;br&gt;(Platform, domain, company)&lt;/i&gt;&lt;/b&gt;" style="text;html=1;strokeColor=none;fillColor=none;align=center;verticalAlign=middle;whiteSpace=wrap;rounded=0;fontSize=17;" vertex="1" parent="y2lmGv4b4nCFqIiEvOp2-1">
          <mxGeometry x="600" y="220" width="240" height="20" as="geometry" />
        </mxCell>
        <mxCell id="QgFrLn8NZT4hh2QuYDV3-3" value="&lt;i&gt;&lt;b&gt;Outside of Bounded Context&lt;br&gt;(Platform, domain, company)&lt;/b&gt;&lt;/i&gt;" style="text;html=1;strokeColor=none;fillColor=none;align=center;verticalAlign=middle;whiteSpace=wrap;rounded=0;fontSize=17;" vertex="1" parent="y2lmGv4b4nCFqIiEvOp2-1">
          <mxGeometry x="600" y="280" width="240" height="20" as="geometry" />
        </mxCell>
        <mxCell id="QgFrLn8NZT4hh2QuYDV3-4" value="" style="endArrow=classic;startArrow=classic;html=1;strokeWidth=3;fontSize=17;entryX=0.5;entryY=1;entryDx=0;entryDy=0;exitX=0.5;exitY=0;exitDx=0;exitDy=0;" edge="1" parent="y2lmGv4b4nCFqIiEvOp2-1" source="y2lmGv4b4nCFqIiEvOp2-4" target="y2lmGv4b4nCFqIiEvOp2-3">
          <mxGeometry width="50" height="50" relative="1" as="geometry">
            <mxPoint x="390" y="270" as="sourcePoint" />
            <mxPoint x="440" y="220" as="targetPoint" />
          </mxGeometry>
        </mxCell>
        <mxCell id="QgFrLn8NZT4hh2QuYDV3-5" value="" style="endArrow=classic;startArrow=classic;html=1;strokeWidth=3;fontSize=17;entryX=0.25;entryY=1;entryDx=0;entryDy=0;exitX=0.25;exitY=0;exitDx=0;exitDy=0;" edge="1" parent="y2lmGv4b4nCFqIiEvOp2-1" source="y2lmGv4b4nCFqIiEvOp2-4" target="y2lmGv4b4nCFqIiEvOp2-3">
          <mxGeometry width="50" height="50" relative="1" as="geometry">
            <mxPoint x="420" y="300" as="sourcePoint" />
            <mxPoint x="420" y="230" as="targetPoint" />
          </mxGeometry>
        </mxCell>
        <mxCell id="QgFrLn8NZT4hh2QuYDV3-6" value="" style="endArrow=classic;startArrow=classic;html=1;strokeWidth=3;fontSize=17;entryX=0.75;entryY=1;entryDx=0;entryDy=0;exitX=0.75;exitY=0;exitDx=0;exitDy=0;" edge="1" parent="y2lmGv4b4nCFqIiEvOp2-1" source="y2lmGv4b4nCFqIiEvOp2-4" target="y2lmGv4b4nCFqIiEvOp2-3">
          <mxGeometry width="50" height="50" relative="1" as="geometry">
            <mxPoint x="430" y="310" as="sourcePoint" />
            <mxPoint x="430" y="240" as="targetPoint" />
          </mxGeometry>
        </mxCell>
        <mxCell id="QgFrLn8NZT4hh2QuYDV3-7" value="" style="endArrow=classic;startArrow=classic;html=1;strokeWidth=3;fontSize=17;entryX=0.5;entryY=1;entryDx=0;entryDy=0;exitX=0.75;exitY=0;exitDx=0;exitDy=0;" edge="1" parent="y2lmGv4b4nCFqIiEvOp2-1" source="y2lmGv4b4nCFqIiEvOp2-3" target="y2lmGv4b4nCFqIiEvOp2-2">
          <mxGeometry width="50" height="50" relative="1" as="geometry">
            <mxPoint x="440" y="320" as="sourcePoint" />
            <mxPoint x="440" y="250" as="targetPoint" />
          </mxGeometry>
        </mxCell>
        <mxCell id="QgFrLn8NZT4hh2QuYDV3-8" value="&lt;font style=&quot;font-size: 12px&quot;&gt;&lt;b&gt;REST w/json&lt;/b&gt;&lt;/font&gt;" style="text;html=1;strokeColor=none;fillColor=none;align=center;verticalAlign=middle;whiteSpace=wrap;rounded=0;fontSize=17;" vertex="1" parent="y2lmGv4b4nCFqIiEvOp2-1">
          <mxGeometry x="364" y="110" width="100" height="20" as="geometry" />
        </mxCell>
        <mxCell id="QgFrLn8NZT4hh2QuYDV3-10" value="&lt;font style=&quot;font-size: 11px&quot;&gt;&lt;b&gt;SOAP&lt;/b&gt;&lt;/font&gt;" style="text;html=1;strokeColor=none;fillColor=none;align=center;verticalAlign=middle;whiteSpace=wrap;rounded=0;fontSize=17;" vertex="1" parent="y2lmGv4b4nCFqIiEvOp2-1">
          <mxGeometry x="300" y="280" width="40" height="20" as="geometry" />
        </mxCell>
        <mxCell id="QgFrLn8NZT4hh2QuYDV3-11" value="&lt;font style=&quot;font-size: 11px&quot;&gt;&lt;b&gt;JMS&lt;/b&gt;&lt;/font&gt;" style="text;html=1;strokeColor=none;fillColor=none;align=center;verticalAlign=middle;whiteSpace=wrap;rounded=0;fontSize=17;" vertex="1" parent="y2lmGv4b4nCFqIiEvOp2-1">
          <mxGeometry x="370" y="280" width="40" height="20" as="geometry" />
        </mxCell>
        <mxCell id="QgFrLn8NZT4hh2QuYDV3-12" value="&lt;font style=&quot;font-size: 11px&quot;&gt;&lt;b&gt;???&lt;/b&gt;&lt;/font&gt;" style="text;html=1;strokeColor=none;fillColor=none;align=center;verticalAlign=middle;whiteSpace=wrap;rounded=0;fontSize=17;" vertex="1" parent="y2lmGv4b4nCFqIiEvOp2-1">
          <mxGeometry x="430" y="280" width="40" height="20" as="geometry" />
        </mxCell>
        <mxCell id="QgFrLn8NZT4hh2QuYDV3-13" value="Business application" style="rounded=1;whiteSpace=wrap;html=1;fontStyle=1;fontSize=17;fillColor=#dae8fc;strokeColor=#6c8ebf;" vertex="1" parent="y2lmGv4b4nCFqIiEvOp2-1">
          <mxGeometry x="120" y="20" width="260" height="60" as="geometry" />
        </mxCell>
        <mxCell id="QgFrLn8NZT4hh2QuYDV3-14" value="" style="endArrow=classic;startArrow=classic;html=1;strokeWidth=3;fontSize=17;entryX=0.5;entryY=1;entryDx=0;entryDy=0;exitX=0.25;exitY=0;exitDx=0;exitDy=0;" edge="1" parent="y2lmGv4b4nCFqIiEvOp2-1" source="y2lmGv4b4nCFqIiEvOp2-3" target="QgFrLn8NZT4hh2QuYDV3-13">
          <mxGeometry width="50" height="50" relative="1" as="geometry">
            <mxPoint x="420" y="170" as="sourcePoint" />
            <mxPoint x="580" y="90" as="targetPoint" />
          </mxGeometry>
        </mxCell>
      </root>
    </mxGraphModel>
  </diagram>
</mxfile>
